<svg width="137" height="37" viewBox="0 0 137 37" fill="currentColor" xmlns="http://www.w3.org/2000/svg">
<g clip-path="url(#clip0_1_117)" filter="url(#filter0_d_1_117)">
<path d="M27.6534 7.86758C26.7918 6.71992 25.4807 6.14612 23.7184 6.14612C22.3981 6.14612 21.3155 6.52001 20.4761 7.26969C19.6349 8.01752 19.0035 8.96156 18.5838 10.1C18.2625 8.96156 17.6869 8.01752 16.8568 7.26969C16.0248 6.52186 14.9496 6.14612 13.6293 6.14612C12.3461 6.14612 11.3006 6.48114 10.4891 7.14937C9.67761 7.8176 9.0518 8.71167 8.61169 9.82971V6.5052H4.04346V22.7649H8.63955V13.5133C8.63955 12.0751 8.86982 11.0236 9.33035 10.3554C9.79089 9.68718 10.4928 9.35214 11.4343 9.35214C12.3758 9.35214 13.0704 9.68718 13.5216 10.3554C13.9729 11.0236 14.1976 12.0565 14.1976 13.4541V22.7668H18.7936V13.5152C18.7936 12.0769 19.0239 11.0255 19.4844 10.3573C19.945 9.68903 20.6469 9.35399 21.5884 9.35399C22.5299 9.35399 23.2245 9.68903 23.6757 10.3573C24.127 11.0255 24.3517 12.0584 24.3517 13.4559V22.7686H28.9478V12.4638C28.944 10.5479 28.5151 9.01709 27.6534 7.86758Z" />
<path d="M46.814 20.9879C46.1436 19.6903 45.1872 18.6871 43.9449 17.9781C42.7044 17.2691 41.2523 16.9156 39.5902 16.9156C37.9691 16.9156 36.5262 17.2747 35.2634 17.9929C34.0025 18.7111 33.0257 19.7088 32.3368 20.9879C32.0359 21.5451 31.7982 22.1374 31.6311 22.765H36.2161C36.437 21.9931 36.7769 21.3859 37.2337 20.9435C37.8632 20.3345 38.6487 20.0291 39.5902 20.0291C40.5503 20.0291 41.3525 20.3586 41.9932 21.0175C42.4426 21.4803 42.7657 22.0634 42.9588 22.765H47.4899C47.3247 22.1374 47.1 21.5451 46.814 20.9879Z" />
<path d="M47.8205 6.38494C47.8205 4.68938 47.4843 3.19186 46.814 1.89427C46.4426 1.17605 45.982 0.548548 45.4361 0.0098877H33.7685C33.2003 0.550399 32.7249 1.17791 32.3367 1.89427C31.6459 3.1715 31.3005 4.6394 31.3005 6.29609C31.3005 7.95279 31.6404 9.42439 32.3219 10.7127C33.0016 11.9992 33.9672 13.0025 35.2188 13.7226C36.4704 14.4408 37.9282 14.798 39.5902 14.798C41.5716 14.798 43.2448 14.3612 44.606 13.4819C45.9672 12.6027 46.918 11.3162 47.4602 9.6206H42.8325C42.5336 10.3185 42.1325 10.8386 41.6311 11.1773C41.1297 11.5161 40.4593 11.6864 39.6199 11.6864C38.6394 11.6864 37.8261 11.3476 37.1854 10.6683C36.5447 9.99081 36.1455 8.99309 35.9839 7.67513H47.7276C47.7907 7.21237 47.8205 6.78477 47.8205 6.38494ZM36.0155 4.61719C36.1975 3.38068 36.6023 2.45699 37.2337 1.84799C37.8632 1.23899 38.6487 0.935422 39.5902 0.935422C40.5503 0.935422 41.3525 1.26306 41.9932 1.92204C42.6338 2.58102 43.0145 3.47878 43.1352 4.61719H36.0155Z"/>
<path d="M88.7915 0.00802612V22.7632H93.3876V0.00802612H88.7915Z" />
<path d="M111.473 16.7324C110.91 15.7754 110.071 15.022 108.949 14.4722C107.826 13.9225 106.446 13.6485 104.805 13.6485C103.423 13.6485 102.186 13.8595 101.094 14.2779C100.002 14.6962 99.1221 15.3052 98.4517 16.103C97.7813 16.9027 97.3765 17.8523 97.2354 18.9481H101.861C101.96 18.3298 102.266 17.8097 102.777 17.3913C103.289 16.973 103.965 16.762 104.805 16.762C105.746 16.762 106.465 17.0378 106.968 17.5857C107.467 18.1355 107.718 18.8389 107.718 19.6978V19.968L103.421 20.3864C101.44 20.5659 99.8185 21.0157 98.5557 21.7321C98.0729 22.0061 97.6829 22.3504 97.3876 22.765H112.312V20.0254C112.312 18.7871 112.032 17.6912 111.473 16.7324Z" />
<path d="M112.309 0.00802612H107.716V0.126494L103.419 0.546684C101.438 0.726234 99.8164 1.1742 98.5537 1.89241C97.2928 2.61062 96.6614 3.80826 96.6614 5.48533C96.6614 6.50342 96.9121 7.41599 97.4116 8.22491C97.913 9.03382 98.5982 9.66318 99.471 10.1111C100.342 10.5591 101.298 10.7849 102.338 10.7849C103.761 10.7849 104.892 10.4851 105.733 9.88716C106.574 9.28742 107.256 8.44888 107.776 7.37157V10.4258H112.31V0.185727C112.312 0.128344 112.312 0.069111 112.309 0.00802612ZM107.718 3.51394C107.718 4.37283 107.582 5.14472 107.311 5.83332C107.042 6.52193 106.637 7.06059 106.095 7.44931C105.555 7.83803 104.903 8.03425 104.143 8.03425C103.621 8.03425 103.148 7.92874 102.715 7.71957C102.286 7.50854 101.95 7.21422 101.711 6.83476C101.469 6.45714 101.35 6.00733 101.35 5.48903C101.35 4.90964 101.521 4.46168 101.861 4.14145C102.201 3.82306 102.63 3.59354 103.152 3.45286C103.673 3.31588 104.323 3.20296 105.105 3.12336L107.718 2.85496V3.51394Z" />
<path d="M66.7321 22.765C66.6838 24.1644 66.3013 25.325 65.5789 26.2376C64.8082 27.215 63.8166 27.9184 62.6058 28.3497C61.3932 28.7773 60.097 28.992 58.7173 28.992C57.3746 28.992 56.1342 28.7976 54.9921 28.4089C53.85 28.0202 52.8993 27.4204 52.1379 26.6115C51.3784 25.8026 50.9271 24.7993 50.7878 23.6017H55.4136C55.5752 24.3403 55.954 24.903 56.5557 25.2936C57.1574 25.6823 57.876 25.8766 58.7191 25.8766C59.7386 25.8766 60.5705 25.5971 61.2112 25.0381C61.811 24.5143 62.1304 23.7572 62.1694 22.7632H66.7321V22.765Z"/>
<path d="M77.3969 22.765C76.7303 23.0057 75.9485 23.1241 75.0515 23.1241C74.2939 23.1241 73.5789 23.0057 72.9104 22.765H77.3969Z" />
<path d="M128.349 22.765C127.692 23.0057 126.984 23.1241 126.227 23.1241C125.499 23.1241 124.814 23.0057 124.175 22.765H128.349Z"/>
<path d="M62.1695 6.50527V10.0982C61.7888 8.93942 61.1333 7.99167 60.2029 7.2531C59.2707 6.51638 58.1231 6.14432 56.7637 6.14432C55.4415 6.14432 54.2698 6.48861 53.2484 7.17721C52.2289 7.8658 51.436 8.83391 50.8752 10.0815C50.3143 11.3291 50.0339 12.7619 50.0339 14.3778C50.0339 15.9957 50.3143 17.4284 50.8752 18.676C51.436 19.9236 52.2271 20.8917 53.2484 21.5803C54.2698 22.2689 55.4415 22.6114 56.7637 22.6114C57.9838 22.6114 59.0757 22.2874 60.0358 21.6396C60.9977 20.9917 61.7071 20.1365 62.1695 19.0795V22.5521C62.1695 22.6225 62.1676 22.6928 62.1658 22.7632C62.1268 23.7572 61.8073 24.5161 61.2075 25.0381C60.5669 25.5971 59.7349 25.8767 58.7154 25.8767C57.8724 25.8767 57.1537 25.6823 56.552 25.2936C55.9504 24.903 55.5715 24.3403 55.41 23.6017H50.7842C50.9234 24.7993 51.3747 25.8026 52.1342 26.6115C52.8956 27.4204 53.8464 28.0183 54.9884 28.4089C56.1305 28.7976 57.371 28.992 58.7136 28.992C60.0933 28.992 61.3895 28.7773 62.6021 28.3497C63.8148 27.9202 64.8046 27.215 65.5752 26.2376C66.2957 25.325 66.6801 24.1644 66.7284 22.765C66.7302 22.6669 66.7321 22.5651 66.7321 22.4651V6.50527H62.1695ZM61.3598 18.154C60.6987 19.0518 59.7572 19.4997 58.5353 19.4997C57.293 19.4997 56.3478 19.0518 55.6978 18.154C55.046 17.2544 54.721 15.9975 54.721 14.3797C54.721 12.7637 55.046 11.5068 55.6978 10.6072C56.3478 9.70946 57.293 9.2615 58.5353 9.2615C59.7572 9.2615 60.6987 9.70946 61.3598 10.6072C62.019 11.5068 62.3496 12.7637 62.3496 14.3797C62.3496 15.9975 62.019 17.2544 61.3598 18.154Z"/>
<path d="M84.1824 9.23182C83.6198 8.27297 82.7804 7.52143 81.6588 6.97167C80.5353 6.4219 79.1555 6.14612 77.5139 6.14612C76.1323 6.14612 74.8955 6.35711 73.8036 6.77546C72.7117 7.1938 71.8315 7.8028 71.1611 8.60246C70.4907 9.40212 70.0859 10.3499 69.9448 11.4475H74.5706C74.669 10.8293 74.9754 10.3091 75.4861 9.88894C75.9986 9.4706 76.6746 9.26143 77.5139 9.26143C78.4554 9.26143 79.1741 9.53539 79.6773 10.0852C80.1769 10.6349 80.4276 11.3383 80.4276 12.1972V12.4638L76.1304 12.8821C74.149 13.0635 72.5279 13.5115 71.2651 14.2297C70.0042 14.9479 69.3728 16.1455 69.3728 17.8226C69.3728 18.8388 69.6235 19.7533 70.123 20.5622C70.6244 21.3711 71.3097 22.0005 72.1825 22.4484C72.4183 22.5687 72.6616 22.6761 72.9085 22.7631C73.5771 23.0037 74.2902 23.1222 75.0497 23.1222C75.9485 23.1222 76.7284 23.0037 77.3951 22.7631C77.7832 22.6261 78.1323 22.4447 78.4424 22.2226C79.2855 21.6247 79.9652 20.7862 80.4851 19.7088V22.7631H85.0199V12.523C85.0236 11.2865 84.7432 10.1888 84.1824 9.23182ZM80.4276 15.8475C80.4276 16.7064 80.292 17.4802 80.0209 18.1688C79.7516 18.8555 79.3468 19.396 78.8045 19.7847C78.2641 20.1735 77.6123 20.3678 76.8528 20.3678C76.331 20.3678 75.8575 20.2642 75.4248 20.055C74.9958 19.844 74.6597 19.5496 74.4201 19.1702C74.1787 18.7926 74.0599 18.3428 74.0599 17.8245C74.0599 17.2451 74.2307 16.7971 74.5706 16.4769C74.9104 16.1585 75.3412 15.9271 75.8612 15.7883C76.383 15.6495 77.0348 15.5384 77.8148 15.4588L80.4276 15.1904V15.8475Z" />
<path d="M132.115 10.2944C131.555 9.00605 130.763 7.99352 129.74 7.2531C128.721 6.51637 127.549 6.1443 126.227 6.1443C125.306 6.1443 124.483 6.32571 123.764 6.68482C123.044 7.04393 122.437 7.52891 121.946 8.13791C121.454 8.74691 121.079 9.42069 120.819 10.1574V0.00802612H116.255V22.7632H120.819V19.4997C121.257 20.5771 121.965 21.4508 122.936 22.119C123.328 22.3874 123.742 22.604 124.173 22.7632C124.812 23.0038 125.497 23.1223 126.225 23.1223C126.981 23.1223 127.69 23.0038 128.347 22.7632C128.84 22.5836 129.302 22.3411 129.738 22.0301C130.76 21.3027 131.553 20.292 132.113 19.0055C132.674 17.7172 132.955 16.2641 132.955 14.6481C132.955 13.0321 132.676 11.5809 132.115 10.2944ZM121.633 18.5872C120.971 17.6394 120.641 16.327 120.641 14.6481C120.641 12.9729 120.971 11.6531 121.633 10.6961C122.294 9.73723 123.233 9.2578 124.455 9.2578C125.677 9.2578 126.619 9.73723 127.28 10.6961C127.941 11.6531 128.271 12.971 128.271 14.6481C128.271 16.3252 127.941 17.6394 127.28 18.5872C126.619 19.5349 125.677 20.0088 124.455 20.0088C123.233 20.0088 122.294 19.5349 121.633 18.5872Z" />
</g>
<defs>
<filter id="filter0_d_1_117" x="0" y="0" width="137" height="37" filterUnits="userSpaceOnUse" color-interpolation-filters="sRGB">
<feFlood flood-opacity="0" result="BackgroundImageFix"/>
<feColorMatrix in="SourceAlpha" type="matrix" values="0 0 0 0 0 0 0 0 0 0 0 0 0 0 0 0 0 0 127 0" result="hardAlpha"/>
<feOffset dy="4"/>
<feGaussianBlur stdDeviation="2"/>
<feComposite in2="hardAlpha" operator="out"/>
<feColorMatrix type="matrix" values="0 0 0 0 0 0 0 0 0 0 0 0 0 0 0 0 0 0 0.25 0"/>
<feBlend mode="normal" in2="BackgroundImageFix" result="effect1_dropShadow_1_117"/>
<feBlend mode="normal" in="SourceGraphic" in2="effect1_dropShadow_1_117" result="shape"/>
</filter>
<clipPath id="clip0_1_117">
<rect width="129" height="29"  transform="translate(4)"/>
</clipPath>
</defs>
</svg>
