<?xml version="1.0" encoding="utf-8"?>
<!-- Svg Vector Icons : http://www.onlinewebfonts.com/icon -->
<!DOCTYPE svg PUBLIC "-//W3C//DTD SVG 1.1//EN" "http://www.w3.org/Graphics/SVG/1.1/DTD/svg11.dtd">
<svg version="1.1" xmlns="http://www.w3.org/2000/svg" xmlns:xlink="http://www.w3.org/1999/xlink" x="0px" y="0px" viewBox="0 0 1000 1000" enable-background="new 0 0 1000 1000" xml:space="preserve">
<metadata> Svg Vector Icons : http://www.onlinewebfonts.com/icon </metadata>
<g><g><g><path d="M970.9,394.7h-7.6c-7.3-86.6-63.8-159.4-141.4-190.3C751.1,102.4,633.3,35.5,500,35.5c-133.3,0-251.1,66.9-321.9,168.9c-77.6,31-134,103.7-141.3,190.3h-7.6c-10.6,0-19.2,8.6-19.2,19.2c0,10.6,8.6,19.2,19.2,19.2h7.6c5.9,69.7,43.5,130.6,98.4,167.8l54.3,347.5c1.5,9.3,9.5,16.2,18.9,16.2h143.7c10.6,0,19.2-8.6,19.2-19.2c0-70.9,57.7-128.6,128.6-128.6c70.9,0,128.6,57.7,128.6,128.6c0,10.6,8.6,19.2,19.2,19.2h143.7c9.4,0,17.5-6.9,18.9-16.2l54.3-347.5c55-37.2,92.5-98,98.4-167.8h7.7c10.6,0,19.2-8.6,19.2-19.2C990,403.3,981.5,394.7,970.9,394.7z M500,73.8c103.3,0,196.5,44.6,261.1,115.5c-7.4-0.8-15-1.2-22.6-1.2c-117.9,0-214.9,91-224.7,206.5h-27.7c-9.8-115.4-106.7-206.5-224.7-206.5c-7.6,0-15.2,0.4-22.6,1.2C303.6,118.4,396.7,73.8,500,73.8z M853.3,425.7l-23.7,151.7c-27,15.2-58,23.8-91.1,23.8c-103.3,0-187.3-84-187.3-187.3c0-103.3,84-187.3,187.3-187.3c20.4,0,40,3.4,58.4,9.4C832.3,290.8,853.1,355.8,853.3,425.7z M146.7,425.7c0.3-69.8,21-134.9,56.4-189.7c18.4-6.1,38-9.4,58.4-9.4c103.3,0,187.3,84,187.3,187.3c0,103.3-84,187.3-187.3,187.3c-33.1,0-64.1-8.7-91.1-23.8L146.7,425.7z M74.2,413.9c0-57.5,26.1-108.9,66.9-143.3c-21,48-32.8,100.9-32.8,156.6c0,1,0.1,2,0.2,2.9l17.7,113C94.1,509.4,74.2,464,74.2,413.9z M775.1,926.2H665.9c-9.5-83.1-80.3-147.8-165.9-147.8c-85.6,0-156.3,64.7-165.8,147.8H224.9l-47.3-303.1c26,10.4,54.3,16.4,83.9,16.4c118,0,214.9-91,224.7-206.5h27.7c9.8,115.5,106.7,206.5,224.7,206.5c29.7,0,58-5.9,83.9-16.4L775.1,926.2z M873.8,543.1l17.6-113c0.2-1,0.2-2,0.2-2.9c0-55.6-11.7-108.6-32.7-156.6c40.9,34.4,67,85.8,67,143.3C925.9,464,906,509.4,873.8,543.1z"/><path d="M339.4,338.1c0-42.9-34.9-77.9-77.9-77.9c-42.9,0-77.9,34.9-77.9,77.9c0,42.9,34.9,77.9,77.9,77.9C304.5,415.9,339.4,381,339.4,338.1z M261.5,377.6c-4.8,0-9.3-1-13.5-2.5c25.5-2,45.7-23.2,45.7-49.1c0-4.5-0.8-8.9-2-13.1c5.8,6.9,9.4,15.6,9.4,25.3C301.1,359.9,283.3,377.6,261.5,377.6z M255.3,325.9c0,6.2-5,11.2-11.2,11.2c-6.2,0-11.2-5-11.2-11.2c0-6.2,5-11.2,11.2-11.2C250.3,314.7,255.3,319.8,255.3,325.9z"/><path d="M645.1,338.1c0,42.9,34.9,77.9,77.9,77.9c42.9,0,77.9-34.9,77.9-77.9c0-43-34.9-77.9-77.9-77.9C680,260.2,645.1,295.1,645.1,338.1z M694.4,325.9c0-6.2,5-11.2,11.2-11.2c6.2,0,11.2,5.1,11.2,11.2c0,6.2-5,11.2-11.2,11.2C699.4,337.1,694.4,332.1,694.4,325.9z M723,377.6c-4.8,0-9.3-1-13.6-2.5c25.5-2,45.7-23.2,45.7-49.1c0-4.5-0.8-8.9-2-13.1c5.8,6.9,9.4,15.6,9.4,25.3C762.5,359.9,744.8,377.6,723,377.6z"/><path d="M600.4,650.9H491.1c-10.6,0-19.2,8.6-19.2,19.2c0,10.6,8.6,19.2,19.2,19.2h109.3c10.6,0,19.2-8.6,19.2-19.2C619.6,659.5,611,650.9,600.4,650.9z"/></g></g><g></g><g></g><g></g><g></g><g></g><g></g><g></g><g></g><g></g><g></g><g></g><g></g><g></g><g></g><g></g></g>
</svg>